<!-- icon666.com - MILLIONS vector ICONS FREE --><svg enable-background="new 0 0 32 32" viewBox="0 0 32 32" xmlns="http://www.w3.org/2000/svg"><g id="Layer_43"><path d="m12 15h-6c-1.6543 0-3-1.3457-3-3v-6c0-1.6543 1.3457-3 3-3h6c1.6543 0 3 1.3457 3 3v6c0 1.6543-1.3457 3-3 3zm-6-10c-.5513 0-1 .4482-1 1v6c0 .5518.4487 1 1 1h6c.5513 0 1-.4482 1-1v-6c0-.5518-.4487-1-1-1z"></path><path d="m26 15h-6c-1.6543 0-3-1.3457-3-3v-6c0-1.6543 1.3457-3 3-3h6c1.6543 0 3 1.3457 3 3v6c0 1.6543-1.3457 3-3 3zm-6-10c-.5513 0-1 .4482-1 1v6c0 .5518.4487 1 1 1h6c.5513 0 1-.4482 1-1v-6c0-.5518-.4487-1-1-1z"></path><path d="m12 29h-6c-1.6543 0-3-1.3457-3-3v-6c0-1.6543 1.3457-3 3-3h6c1.6543 0 3 1.3457 3 3v6c0 1.6543-1.3457 3-3 3zm-6-10c-.5513 0-1 .4482-1 1v6c0 .5518.4487 1 1 1h6c.5513 0 1-.4482 1-1v-6c0-.5518-.4487-1-1-1z"></path><path d="m26 29h-6c-1.6543 0-3-1.3457-3-3v-6c0-1.6543 1.3457-3 3-3h6c1.6543 0 3 1.3457 3 3v6c0 1.6543-1.3457 3-3 3zm-6-10c-.5513 0-1 .4482-1 1v6c0 .5518.4487 1 1 1h6c.5513 0 1-.4482 1-1v-6c0-.5518-.4487-1-1-1z"></path></g></svg>